# File created by Blade
# Date/Time:  Tue Sep 30 19:15:05 2014
# Frame Rate: 120.000 fps
#------------------------------------------------------
:FULLY-SPECIFIED
:DEGREES
826
root -2.594495 32.508636 -3.698593 1.310434 17.755686 -0.584439
Spine -2.670713 8.485870 -3.686462
Head -1.717845 -7.727042 13.671473
LeftShoulder 20.639937 11.973896 19.229108
LeftArm -4.981298 -23.685876 -72.517979
LeftForeArm -127.904415 8.267027 -6.387819
LeftHand 0.000063 31.639183 15.403079
LeftHandThumb1 30.357831 13.997178 22.438692
RightShoulder -9.532737 -20.621408 -17.323487
RightArm 20.456036 -17.753829 80.282913
RightForeArm 26.889114 -14.541990 26.342658
RightHand -0.000056 -6.562646 7.791752
RightHandThumb1 30.482666 -12.916435 -20.793814
LeftUpLeg -9.344175 2.151290 -4.332537
LeftLeg 18.851801 -0.000000 -0.000000
LeftFoot -13.249842 -6.802792 -8.804775
LeftToeBase -4.085900 -0.000000 -0.000000
RightUpLeg -93.129549 -1.593439 35.404179
RightLeg 107.956100 -0.000000 -0.000000
RightFoot 27.539103 -22.026829 2.509351
RightToeBase 16.859301 0.000000 0.000000
827
root -2.597595 32.514835 -3.693193 1.273193 17.582615 -0.650565
Spine -2.661218 8.575674 -3.576507
Head -1.733530 -7.600059 13.612607
LeftShoulder 20.775760 12.019195 19.226268
LeftArm -4.824781 -23.681672 -72.446081
LeftForeArm -128.116583 8.143412 -6.341546
LeftHand -0.000034 31.526471 15.261475
LeftHandThumb1 30.357831 13.997178 22.438692
RightShoulder -9.560891 -20.592296 -17.361984
RightArm 20.403444 -17.811879 80.335800
RightForeArm 26.866970 -14.479972 26.269281
RightHand -0.000023 -6.571633 7.778890
RightHandThumb1 30.482666 -12.916435 -20.793814
LeftUpLeg -9.279731 2.204778 -4.265861
LeftLeg 18.787901 -0.000000 -0.000000
LeftFoot -13.258225 -6.685452 -8.764702
LeftToeBase -4.231600 -0.000000 0.000000
RightUpLeg -93.046638 -1.515001 35.408263
RightLeg 108.051598 0.000000 0.000000
RightFoot 27.610246 -22.104330 2.542831
RightToeBase 16.712400 -0.000000 -0.000000
828
root -2.597595 32.519436 -3.690993 1.256879 17.438424 -0.694738
Spine -2.655436 8.627245 -3.477467
Head -1.774088 -7.464761 13.539568
LeftShoulder 20.922655 12.087360 19.194852
LeftArm -4.702708 -23.714135 -72.320740
LeftForeArm -128.343491 7.992386 -6.276157
LeftHand -0.000001 31.430315 15.126965
LeftHandThumb1 30.357831 13.997178 22.438692
RightShoulder -9.593768 -20.582357 -17.418188
RightArm 20.408368 -17.828033 80.390043
RightForeArm 26.778626 -14.367171 26.182388
RightHand -0.000002 -6.521977 7.733740
RightHandThumb1 30.482666 -12.916435 -20.793814
LeftUpLeg -9.238415 2.206250 -4.219716
LeftLeg 18.718500 -0.000000 -0.000000
LeftFoot -13.245426 -6.610107 -8.670231
LeftToeBase -4.339700 -0.000000 0.000000
RightUpLeg -93.022616 -1.442482 35.394379
RightLeg 108.174400 -0.000000 0.000000
RightFoot 27.665228 -22.178321 2.615370
RightToeBase 16.680500 -0.000000 -0.000000
829
root -2.600895 32.523536 -3.688593 1.260199 17.283315 -0.742712
Spine -2.682190 8.690379 -3.390293
Head -1.807937 -7.319210 13.484305
LeftShoulder 21.068487 12.141423 19.173353
LeftArm -4.632193 -23.735475 -72.164155
LeftForeArm -128.585768 7.830891 -6.204335
LeftHand -0.000031 31.468815 14.795026
LeftHandThumb1 30.357831 13.997178 22.438692
RightShoulder -9.618587 -20.597721 -17.482021
RightArm 20.394649 -17.829930 80.469680
RightForeArm 26.645957 -14.303146 26.214024
RightHand 0.000022 -6.549987 7.794919
RightHandThumb1 30.482666 -12.916435 -20.793814
LeftUpLeg -9.221153 2.235718 -4.169624
LeftLeg 18.658501 -0.000000 -0.000000
LeftFoot -13.267019 -6.529065 -8.569772
LeftToeBase -4.460400 -0.000000 0.000000
RightUpLeg -93.013335 -1.334952 35.399269
RightLeg 108.282700 -0.000000 -0.000000
RightFoot 27.713625 -22.176766 2.764689
RightToeBase 16.621700 -0.000000 -0.000000
830
root -2.605895 32.527534 -3.684293 1.251215 17.125752 -0.794267
Spine -2.701742 8.729630 -3.307987
Head -1.833242 -7.130727 13.456758
LeftShoulder 21.214796 12.221272 19.168228
LeftArm -4.557775 -23.746248 -72.010886
LeftForeArm -128.794119 7.614830 -6.080262
LeftHand -0.000004 31.304631 14.561654
LeftHandThumb1 30.357831 13.997178 22.438692
RightShoulder -9.651423 -20.596851 -17.529060
RightArm 20.342355 -17.830175 80.558951
RightForeArm 26.499070 -14.264852 26.300015
RightHand 0.000024 -6.558580 7.979515
RightHandThumb1 30.482666 -12.916435 -20.793814
LeftUpLeg -9.196469 2.246755 -4.117640
LeftLeg 18.612301 -0.000000 -0.000000
LeftFoot -13.302094 -6.461413 -8.397618
LeftToeBase -3.989100 -0.000000 0.000000
RightUpLeg -93.004528 -1.230945 35.413924
RightLeg 108.407402 0.000000 0.000000
RightFoot 27.724594 -22.299329 2.986402
RightToeBase 16.782499 0.000000 0.000000
831
root -2.603395 32.530635 -3.682293 1.252901 17.003849 -0.835350
Spine -2.730874 8.728694 -3.200105
Head -1.846038 -6.942790 13.374391
LeftShoulder 21.412526 12.327398 19.137469
LeftArm -4.487624 -23.822887 -71.831545
LeftForeArm -128.962707 7.551308 -6.066361
LeftHand 0.000006 31.123014 14.343050
LeftHandThumb1 30.357831 13.997178 22.438692
RightShoulder -9.714641 -20.570979 -17.639823
RightArm 19.916186 -17.999201 80.761799
RightForeArm 26.389660 -14.422263 26.655190
RightHand -0.000017 -6.607115 7.794833
RightHandThumb1 30.482666 -12.916435 -20.793814
LeftUpLeg -9.183996 2.144537 -4.090216
LeftLeg 18.570999 -0.000000 -0.000000
LeftFoot -13.326506 -6.259788 -8.256587
LeftToeBase -4.044600 -0.000000 0.000000
RightUpLeg -93.043109 -1.171901 35.431104
RightLeg 108.531898 -0.000000 0.000000
RightFoot 27.858782 -22.265407 3.062167
RightToeBase 16.744699 -0.000000 -0.000000
832
root -2.602895 32.533134 -3.679893 1.261407 16.882312 -0.876604
Spine -2.772982 8.736324 -3.099307
Head -1.851469 -6.767664 13.288638
LeftShoulder 21.577142 12.430512 19.105346
LeftArm -4.418653 -23.913350 -71.634619
LeftForeArm -129.120783 7.406204 -5.984700
LeftHand -0.000005 31.205707 14.337168
LeftHandThumb1 30.357831 13.997178 22.438692
RightShoulder -9.744870 -20.550322 -17.752324
RightArm 19.455214 -18.155357 80.977495
RightForeArm 26.299515 -14.610611 27.039634
RightHand 0.000033 -6.743233 7.772125
RightHandThumb1 30.482666 -12.916435 -20.793814
LeftUpLeg -9.186059 2.026097 -4.062451
LeftLeg 18.556499 -0.000000 -0.000000
LeftFoot -13.370295 -6.017076 -8.156005
LeftToeBase -4.124100 -0.000000 0.000000
RightUpLeg -93.083386 -1.089871 35.429244
RightLeg 108.650398 -0.000000 -0.000000
RightFoot 27.941519 -22.243739 3.219064
RightToeBase 16.760599 -0.000000 0.000000
833
root -2.603795 32.535636 -3.677393 1.259096 16.765171 -0.926108
Spine -2.806962 8.752036 -2.988504
Head -1.863036 -6.601570 13.215643
LeftShoulder 21.729115 12.512542 19.086963
LeftArm -4.361768 -23.980713 -71.436481
LeftForeArm -129.266731 7.237618 -5.880449
LeftHand 0.000048 31.218108 14.076128
LeftHandThumb1 30.357831 13.997178 22.438692
RightShoulder -9.729956 -20.586746 -17.849396
RightArm 19.568014 -18.131314 81.046023
RightForeArm 26.212416 -14.511970 26.974818
RightHand -0.000002 -6.823338 7.813063
RightHandThumb1 30.482666 -12.916435 -20.793814
LeftUpLeg -9.185601 1.858370 -4.021462
LeftLeg 18.540899 -0.000000 0.000000
LeftFoot -13.466212 -5.771184 -7.916774
LeftToeBase -4.107800 -0.000000 0.000000
RightUpLeg -93.118596 -1.019495 35.428241
RightLeg 108.753304 -0.000000 0.000000
RightFoot 28.024861 -22.235516 3.352762
RightToeBase 16.666100 -0.000000 0.000000
834
root -2.603995 32.538135 -3.674093 1.236870 16.645666 -0.979786
Spine -2.815873 8.766806 -2.860756
Head -1.889078 -6.425149 13.117984
LeftShoulder 21.921429 12.609540 19.096508
LeftArm -4.279122 -24.082973 -71.296198
LeftForeArm -129.370161 7.036141 -5.739640
LeftHand -0.000005 31.094472 13.927489
LeftHandThumb1 30.357831 13.997178 22.438692
RightShoulder -9.759559 -20.599899 -17.943243
RightArm 19.641761 -18.158440 81.103381
RightForeArm 26.117529 -14.418419 26.925169
RightHand -0.000025 -6.771149 7.751128
RightHandThumb1 30.482666 -12.916435 -20.793814
LeftUpLeg -9.163132 1.691873 -3.974780
LeftLeg 18.530600 0.000000 0.000000
LeftFoot -13.488703 -5.509062 -7.898458
LeftToeBase -4.257800 -0.000000 0.000000
RightUpLeg -93.130886 -0.951475 35.415799
RightLeg 108.834396 -0.000000 -0.000000
RightFoot 28.122254 -22.205736 3.449977
RightToeBase 16.597700 0.000000 0.000000
835
root -2.602195 32.540435 -3.670893 1.216845 16.531621 -1.027280
Spine -2.833006 8.806904 -2.737050
Head -1.915205 -6.294073 13.038630
LeftShoulder 22.028190 12.647161 19.077703
LeftArm -4.210180 -24.117373 -71.085742
LeftForeArm -129.480196 6.782208 -5.556363
LeftHand 0.000031 31.135732 13.970115
LeftHandThumb1 30.357831 13.997178 22.438692
RightShoulder -9.770505 -20.624799 -18.034575
RightArm 19.657184 -18.186298 81.149230
RightForeArm 26.030539 -14.333658 26.880640
RightHand -0.000039 -6.748590 7.891050
RightHandThumb1 30.482666 -12.916435 -20.793814
LeftUpLeg -9.143165 1.462543 -3.937961
LeftLeg 18.525200 -0.000000 -0.000000
LeftFoot -13.586230 -5.188215 -7.729912
LeftToeBase -4.242000 -0.000000 -0.000000
RightUpLeg -93.144026 -0.887116 35.356667
RightLeg 108.901001 0.000000 0.000000
RightFoot 28.146053 -22.230362 3.645961
RightToeBase 16.796301 -0.000000 -0.000000
836
root -2.600495 32.542533 -3.667893 1.192487 16.402883 -1.069258
Spine -2.841696 8.839340 -2.626871
Head -1.947845 -6.147103 12.992821
LeftShoulder 22.132627 12.710560 19.107787
LeftArm -4.159244 -24.133097 -70.959645
LeftForeArm -129.571267 6.598592 -5.424942
LeftHand -0.000090 31.100435 13.657773
LeftHandThumb1 30.357831 13.997178 22.438692
RightShoulder -9.765600 -20.628121 -18.120233
RightArm 19.724453 -18.193187 81.204376
RightForeArm 25.945818 -14.186170 26.733629
RightHand 0.000044 -6.710139 7.760329
RightHandThumb1 30.482666 -12.916435 -20.793814
LeftUpLeg -9.115397 1.283027 -3.905126
LeftLeg 18.514400 -0.000000 -0.000000
LeftFoot -13.633664 -4.915306 -7.672907
LeftToeBase -4.279400 -0.000000 0.000000
RightUpLeg -93.130404 -0.782272 35.226820
RightLeg 108.933197 -0.000000 -0.000000
RightFoot 28.142780 -22.265570 3.933446
RightToeBase 16.970100 -0.000000 -0.000000
